{
    "asset" : {
        "generator" : "Khronos glTF Blender I/O v1.4.40",
        "version" : "2.0"
    },
    "scene" : 0,
    "scenes" : [
        {
            "name" : "Scene",
            "nodes" : [
                0
            ]
        }
    ],
    "nodes" : [
        {
            "mesh" : 0,
            "name" : "Robo_Man",
            "scale" : [
                0.5632922053337097,
                0.5630000233650208,
                0.5630000233650208
            ],
            "translation" : [
                0,
                1.2574714422225952,
                0
            ]
        }
    ],
    "materials" : [
        {
            "doubleSided" : true,
            "name" : "Cylinderical_001",
            "pbrMetallicRoughness" : {
                "metallicFactor" : 0,
                "roughnessFactor" : 0.5
            }
        }
    ],
    "meshes" : [
        {
            "name" : "Robo_Man_Mesh",
            "primitives" : [
                {
                    "attributes" : {
                        "POSITION" : 0,
                        "NORMAL" : 1,
                        "TEXCOORD_0" : 2,
                        "TEXCOORD_1" : 3,
                        "TEXCOORD_2" : 4,
                        "TEXCOORD_3" : 5,
                        "COLOR_0" : 6
                    },
                    "indices" : 7,
                    "material" : 0
                }
            ]
        }
    ],
    "accessors" : [
        {
            "bufferView" : 0,
            "componentType" : 5126,
            "count" : 3136,
            "max" : [
                5.924607276916504,
                3.391533136367798,
                1.7761995792388916
            ],
            "min" : [
                -5.924607276916504,
                -9.297882080078125,
                -1.7761988639831543
            ],
            "type" : "VEC3"
        },
        {
            "bufferView" : 1,
            "componentType" : 5126,
            "count" : 3136,
            "type" : "VEC3"
        },
        {
            "bufferView" : 2,
            "componentType" : 5126,
            "count" : 3136,
            "type" : "VEC2"
        },
        {
            "bufferView" : 3,
            "componentType" : 5126,
            "count" : 3136,
            "type" : "VEC2"
        },
        {
            "bufferView" : 4,
            "componentType" : 5126,
            "count" : 3136,
            "type" : "VEC2"
        },
        {
            "bufferView" : 5,
            "componentType" : 5126,
            "count" : 3136,
            "type" : "VEC2"
        },
        {
            "bufferView" : 6,
            "componentType" : 5123,
            "count" : 3136,
            "normalized" : true,
            "type" : "VEC4"
        },
        {
            "bufferView" : 7,
            "componentType" : 5123,
            "count" : 5112,
            "type" : "SCALAR"
        }
    ],
    "bufferViews" : [
        {
            "buffer" : 0,
            "byteLength" : 37632,
            "byteOffset" : 0
        },
        {
            "buffer" : 0,
            "byteLength" : 37632,
            "byteOffset" : 37632
        },
        {
            "buffer" : 0,
            "byteLength" : 25088,
            "byteOffset" : 75264
        },
        {
            "buffer" : 0,
            "byteLength" : 25088,
            "byteOffset" : 100352
        },
        {
            "buffer" : 0,
            "byteLength" : 25088,
            "byteOffset" : 125440
        },
        {
            "buffer" : 0,
            "byteLength" : 25088,
            "byteOffset" : 150528
        },
        {
            "buffer" : 0,
            "byteLength" : 25088,
            "byteOffset" : 175616
        },
        {
            "buffer" : 0,
            "byteLength" : 10224,
            "byteOffset" : 200704
        }
    ],
    "buffers" : [
        {
            "byteLength" : 210928,
            "uri" : "data:application/octet-stream;base64,"
        }
    ]
}
